# xmcd
#
# Track frame offsets:
#	150
#	9157
#	24249
#	36855
#	55487
#	79039
#	103979
#	114392
#	124916
#	142624
#
# Disc length: 2125 seconds
#
# Revision: 1
# Processed by: cddbd v1.5.2PL0 Copyright (c) Steve Scherf et al.
# Submitted via: audiograbber 1.83.01
#
DISCID=75084b0a
DTITLE=Oscar Peterson - Trio
DYEAR=1980
DGENRE=Jazz
TTITLE0=Busted
TTITLE1=Where can I go
TTITLE2=I was born to be blue
TTITLE3=That lucky old devil
TTITLE4=Ol man river
TTITLE5=Georgia on my mind
TTITLE6=Stranger in town
TTITLE7=Old man kind
TTITLE8=Over the rainbow
TTITLE9=You allways walk alone
EXTD=LP
EXTT0=
EXTT1=
EXTT2=
EXTT3=
EXTT4=
EXTT5=
EXTT6=
EXTT7=
EXTT8=
EXTT9=
PLAYORDER=
